<mxfile host="app.diagrams.net" modified="2023-01-11T11:36:48.129Z" agent="5.0 (Windows NT 10.0; Win64; x64) AppleWebKit/537.36 (KHTML, like Gecko) Chrome/87.0.4280.88 Safari/537.36" version="20.8.3" etag="JZ1i7EdTewL-6rnajD6C" type="github">
  <diagram id="2PeXaUhjWw1AJ2ybHyR6" name="Page-1">
    <mxGraphModel dx="866" dy="446" grid="1" gridSize="10" guides="1" tooltips="1" connect="1" arrows="1" fold="1" page="1" pageScale="1" pageWidth="850" pageHeight="1100" math="0" shadow="0">
      <root>
        <mxCell id="0" />
        <mxCell id="1" parent="0" />
        <mxCell id="XUk-OyAQpMaFKwRmPCpT-6" value="" style="edgeStyle=orthogonalEdgeStyle;rounded=0;orthogonalLoop=1;jettySize=auto;html=1;" edge="1" parent="1" target="XUk-OyAQpMaFKwRmPCpT-5">
          <mxGeometry relative="1" as="geometry">
            <mxPoint x="405" y="190" as="sourcePoint" />
          </mxGeometry>
        </mxCell>
        <mxCell id="XUk-OyAQpMaFKwRmPCpT-8" value="" style="edgeStyle=orthogonalEdgeStyle;rounded=0;orthogonalLoop=1;jettySize=auto;html=1;" edge="1" parent="1" source="XUk-OyAQpMaFKwRmPCpT-5" target="XUk-OyAQpMaFKwRmPCpT-12">
          <mxGeometry relative="1" as="geometry">
            <mxPoint x="225" y="287.5" as="targetPoint" />
            <Array as="points">
              <mxPoint x="180" y="288" />
            </Array>
          </mxGeometry>
        </mxCell>
        <mxCell id="XUk-OyAQpMaFKwRmPCpT-13" value="&lt;font style=&quot;font-size: 17px;&quot;&gt;No&lt;/font&gt;" style="edgeLabel;html=1;align=center;verticalAlign=middle;resizable=0;points=[];" vertex="1" connectable="0" parent="XUk-OyAQpMaFKwRmPCpT-8">
          <mxGeometry x="-0.662" y="1" relative="1" as="geometry">
            <mxPoint x="-25" y="-18" as="offset" />
          </mxGeometry>
        </mxCell>
        <mxCell id="XUk-OyAQpMaFKwRmPCpT-15" style="edgeStyle=orthogonalEdgeStyle;rounded=0;orthogonalLoop=1;jettySize=auto;html=1;fontSize=17;" edge="1" parent="1" source="XUk-OyAQpMaFKwRmPCpT-5" target="XUk-OyAQpMaFKwRmPCpT-17">
          <mxGeometry relative="1" as="geometry">
            <mxPoint x="590" y="340" as="targetPoint" />
          </mxGeometry>
        </mxCell>
        <mxCell id="XUk-OyAQpMaFKwRmPCpT-16" value="Yes" style="edgeLabel;html=1;align=center;verticalAlign=middle;resizable=0;points=[];fontSize=17;" vertex="1" connectable="0" parent="XUk-OyAQpMaFKwRmPCpT-15">
          <mxGeometry x="-0.2" y="4" relative="1" as="geometry">
            <mxPoint x="9" y="-34" as="offset" />
          </mxGeometry>
        </mxCell>
        <mxCell id="XUk-OyAQpMaFKwRmPCpT-5" value="Is height &amp;gt;= 120cm" style="rhombus;whiteSpace=wrap;html=1;" vertex="1" parent="1">
          <mxGeometry x="325" y="240" width="160" height="95" as="geometry" />
        </mxCell>
        <mxCell id="XUk-OyAQpMaFKwRmPCpT-10" value="&lt;br&gt;height" style="html=1;strokeWidth=2;shape=manualInput;whiteSpace=wrap;rounded=1;size=26;arcSize=11;" vertex="1" parent="1">
          <mxGeometry x="352.5" y="150" width="105" height="50" as="geometry" />
        </mxCell>
        <mxCell id="XUk-OyAQpMaFKwRmPCpT-62" style="edgeStyle=orthogonalEdgeStyle;rounded=0;orthogonalLoop=1;jettySize=auto;html=1;entryX=0.315;entryY=0;entryDx=0;entryDy=0;entryPerimeter=0;fontSize=17;" edge="1" parent="1" source="XUk-OyAQpMaFKwRmPCpT-12" target="XUk-OyAQpMaFKwRmPCpT-59">
          <mxGeometry relative="1" as="geometry">
            <Array as="points">
              <mxPoint x="180" y="980" />
              <mxPoint x="389" y="980" />
            </Array>
          </mxGeometry>
        </mxCell>
        <mxCell id="XUk-OyAQpMaFKwRmPCpT-12" value="&lt;font style=&quot;font-size: 16px;&quot;&gt;Can&#39;t ride&lt;/font&gt;" style="strokeWidth=2;html=1;shape=mxgraph.flowchart.display;whiteSpace=wrap;" vertex="1" parent="1">
          <mxGeometry x="130" y="370" width="100" height="60" as="geometry" />
        </mxCell>
        <mxCell id="XUk-OyAQpMaFKwRmPCpT-19" value="" style="edgeStyle=orthogonalEdgeStyle;rounded=0;orthogonalLoop=1;jettySize=auto;html=1;fontSize=17;" edge="1" parent="1" source="XUk-OyAQpMaFKwRmPCpT-17" target="XUk-OyAQpMaFKwRmPCpT-18">
          <mxGeometry relative="1" as="geometry" />
        </mxCell>
        <mxCell id="XUk-OyAQpMaFKwRmPCpT-17" value="age" style="html=1;strokeWidth=2;shape=manualInput;whiteSpace=wrap;rounded=1;size=26;arcSize=11;fontSize=17;" vertex="1" parent="1">
          <mxGeometry x="530" y="257.5" width="100" height="60" as="geometry" />
        </mxCell>
        <mxCell id="XUk-OyAQpMaFKwRmPCpT-21" value="" style="edgeStyle=orthogonalEdgeStyle;rounded=0;orthogonalLoop=1;jettySize=auto;html=1;fontSize=17;" edge="1" parent="1" source="XUk-OyAQpMaFKwRmPCpT-18" target="XUk-OyAQpMaFKwRmPCpT-20">
          <mxGeometry relative="1" as="geometry" />
        </mxCell>
        <mxCell id="XUk-OyAQpMaFKwRmPCpT-26" value="Less than 12" style="edgeLabel;html=1;align=center;verticalAlign=middle;resizable=0;points=[];fontSize=17;" vertex="1" connectable="0" parent="XUk-OyAQpMaFKwRmPCpT-21">
          <mxGeometry x="-0.17" y="2" relative="1" as="geometry">
            <mxPoint x="37" y="-22" as="offset" />
          </mxGeometry>
        </mxCell>
        <mxCell id="XUk-OyAQpMaFKwRmPCpT-25" value="" style="edgeStyle=orthogonalEdgeStyle;rounded=0;orthogonalLoop=1;jettySize=auto;html=1;fontSize=17;" edge="1" parent="1" source="XUk-OyAQpMaFKwRmPCpT-18" target="XUk-OyAQpMaFKwRmPCpT-24">
          <mxGeometry relative="1" as="geometry" />
        </mxCell>
        <mxCell id="XUk-OyAQpMaFKwRmPCpT-27" value="Greater than 18" style="edgeLabel;html=1;align=center;verticalAlign=middle;resizable=0;points=[];fontSize=17;" vertex="1" connectable="0" parent="XUk-OyAQpMaFKwRmPCpT-25">
          <mxGeometry x="-0.5657" relative="1" as="geometry">
            <mxPoint x="39" y="-20" as="offset" />
          </mxGeometry>
        </mxCell>
        <mxCell id="XUk-OyAQpMaFKwRmPCpT-28" style="edgeStyle=orthogonalEdgeStyle;rounded=0;orthogonalLoop=1;jettySize=auto;html=1;entryX=0.5;entryY=0;entryDx=0;entryDy=0;fontSize=17;" edge="1" parent="1" source="XUk-OyAQpMaFKwRmPCpT-18" target="XUk-OyAQpMaFKwRmPCpT-22">
          <mxGeometry relative="1" as="geometry" />
        </mxCell>
        <mxCell id="XUk-OyAQpMaFKwRmPCpT-18" value="Check age&amp;nbsp;" style="rhombus;whiteSpace=wrap;html=1;fontSize=17;strokeWidth=2;rounded=1;arcSize=11;" vertex="1" parent="1">
          <mxGeometry x="515" y="360" width="130" height="80" as="geometry" />
        </mxCell>
        <mxCell id="XUk-OyAQpMaFKwRmPCpT-40" style="edgeStyle=orthogonalEdgeStyle;rounded=0;orthogonalLoop=1;jettySize=auto;html=1;entryX=0.323;entryY=0.16;entryDx=0;entryDy=0;entryPerimeter=0;fontSize=17;" edge="1" parent="1" source="XUk-OyAQpMaFKwRmPCpT-20" target="XUk-OyAQpMaFKwRmPCpT-34">
          <mxGeometry relative="1" as="geometry">
            <Array as="points">
              <mxPoint x="385" y="650" />
              <mxPoint x="557" y="650" />
            </Array>
          </mxGeometry>
        </mxCell>
        <mxCell id="XUk-OyAQpMaFKwRmPCpT-20" value="price = $5" style="shape=parallelogram;perimeter=parallelogramPerimeter;whiteSpace=wrap;html=1;fixedSize=1;fontSize=17;strokeWidth=2;rounded=1;arcSize=11;" vertex="1" parent="1">
          <mxGeometry x="345" y="505" width="120" height="60" as="geometry" />
        </mxCell>
        <mxCell id="XUk-OyAQpMaFKwRmPCpT-35" value="" style="edgeStyle=orthogonalEdgeStyle;rounded=0;orthogonalLoop=1;jettySize=auto;html=1;fontSize=17;" edge="1" parent="1" source="XUk-OyAQpMaFKwRmPCpT-22" target="XUk-OyAQpMaFKwRmPCpT-34">
          <mxGeometry relative="1" as="geometry" />
        </mxCell>
        <mxCell id="XUk-OyAQpMaFKwRmPCpT-22" value="price = $7" style="shape=parallelogram;perimeter=parallelogramPerimeter;whiteSpace=wrap;html=1;fixedSize=1;fontSize=17;strokeWidth=2;rounded=1;arcSize=11;" vertex="1" parent="1">
          <mxGeometry x="520" y="505" width="120" height="60" as="geometry" />
        </mxCell>
        <mxCell id="XUk-OyAQpMaFKwRmPCpT-41" style="edgeStyle=orthogonalEdgeStyle;rounded=0;orthogonalLoop=1;jettySize=auto;html=1;entryX=0.662;entryY=0.16;entryDx=0;entryDy=0;entryPerimeter=0;fontSize=17;" edge="1" parent="1" source="XUk-OyAQpMaFKwRmPCpT-24" target="XUk-OyAQpMaFKwRmPCpT-34">
          <mxGeometry relative="1" as="geometry">
            <Array as="points">
              <mxPoint x="760" y="650" />
              <mxPoint x="601" y="650" />
            </Array>
          </mxGeometry>
        </mxCell>
        <mxCell id="XUk-OyAQpMaFKwRmPCpT-24" value="price = $12" style="shape=parallelogram;perimeter=parallelogramPerimeter;whiteSpace=wrap;html=1;fixedSize=1;fontSize=17;strokeWidth=2;rounded=1;arcSize=11;" vertex="1" parent="1">
          <mxGeometry x="690" y="505" width="120" height="60" as="geometry" />
        </mxCell>
        <mxCell id="XUk-OyAQpMaFKwRmPCpT-32" value="12 - 18" style="text;html=1;strokeColor=none;fillColor=none;align=center;verticalAlign=middle;whiteSpace=wrap;rounded=0;fontSize=17;" vertex="1" parent="1">
          <mxGeometry x="580" y="460" width="80" height="30" as="geometry" />
        </mxCell>
        <mxCell id="XUk-OyAQpMaFKwRmPCpT-42" style="edgeStyle=orthogonalEdgeStyle;rounded=0;orthogonalLoop=1;jettySize=auto;html=1;fontSize=17;" edge="1" parent="1" source="XUk-OyAQpMaFKwRmPCpT-34">
          <mxGeometry relative="1" as="geometry">
            <mxPoint x="590" y="900" as="targetPoint" />
            <Array as="points">
              <mxPoint x="460" y="750" />
              <mxPoint x="460" y="870" />
              <mxPoint x="590" y="870" />
            </Array>
          </mxGeometry>
        </mxCell>
        <mxCell id="XUk-OyAQpMaFKwRmPCpT-44" value="No" style="edgeLabel;html=1;align=center;verticalAlign=middle;resizable=0;points=[];fontSize=17;" vertex="1" connectable="0" parent="XUk-OyAQpMaFKwRmPCpT-42">
          <mxGeometry x="-0.5172" y="1" relative="1" as="geometry">
            <mxPoint x="24" y="-53" as="offset" />
          </mxGeometry>
        </mxCell>
        <mxCell id="XUk-OyAQpMaFKwRmPCpT-43" style="edgeStyle=orthogonalEdgeStyle;rounded=0;orthogonalLoop=1;jettySize=auto;html=1;fontSize=17;" edge="1" parent="1" source="XUk-OyAQpMaFKwRmPCpT-34" target="XUk-OyAQpMaFKwRmPCpT-47">
          <mxGeometry relative="1" as="geometry">
            <mxPoint x="710" y="850" as="targetPoint" />
            <Array as="points">
              <mxPoint x="740" y="750" />
            </Array>
          </mxGeometry>
        </mxCell>
        <mxCell id="XUk-OyAQpMaFKwRmPCpT-45" value="Yes" style="edgeLabel;html=1;align=center;verticalAlign=middle;resizable=0;points=[];fontSize=17;" vertex="1" connectable="0" parent="XUk-OyAQpMaFKwRmPCpT-43">
          <mxGeometry x="-0.2606" y="-1" relative="1" as="geometry">
            <mxPoint x="-26" y="-21" as="offset" />
          </mxGeometry>
        </mxCell>
        <mxCell id="XUk-OyAQpMaFKwRmPCpT-34" value="want photos?" style="rhombus;whiteSpace=wrap;html=1;fontSize=17;strokeWidth=2;rounded=1;arcSize=11;" vertex="1" parent="1">
          <mxGeometry x="515" y="700" width="130" height="100" as="geometry" />
        </mxCell>
        <mxCell id="XUk-OyAQpMaFKwRmPCpT-55" style="edgeStyle=orthogonalEdgeStyle;rounded=0;orthogonalLoop=1;jettySize=auto;html=1;entryX=0.75;entryY=0;entryDx=0;entryDy=0;fontSize=17;" edge="1" parent="1" source="XUk-OyAQpMaFKwRmPCpT-47">
          <mxGeometry relative="1" as="geometry">
            <mxPoint x="637.5" y="900" as="targetPoint" />
            <Array as="points">
              <mxPoint x="740" y="870" />
              <mxPoint x="638" y="870" />
            </Array>
          </mxGeometry>
        </mxCell>
        <mxCell id="XUk-OyAQpMaFKwRmPCpT-47" value="price += $3" style="rounded=1;whiteSpace=wrap;html=1;absoluteArcSize=1;arcSize=14;strokeWidth=2;fontSize=17;" vertex="1" parent="1">
          <mxGeometry x="700" y="800" width="100" height="40" as="geometry" />
        </mxCell>
        <mxCell id="XUk-OyAQpMaFKwRmPCpT-51" style="edgeStyle=orthogonalEdgeStyle;rounded=0;orthogonalLoop=1;jettySize=auto;html=1;fontSize=17;" edge="1" parent="1" source="XUk-OyAQpMaFKwRmPCpT-48">
          <mxGeometry relative="1" as="geometry">
            <mxPoint x="405" y="160" as="targetPoint" />
            <Array as="points">
              <mxPoint x="405" y="140" />
              <mxPoint x="405" y="140" />
            </Array>
          </mxGeometry>
        </mxCell>
        <mxCell id="XUk-OyAQpMaFKwRmPCpT-48" value="START" style="strokeWidth=2;html=1;shape=mxgraph.flowchart.terminator;whiteSpace=wrap;fontSize=17;" vertex="1" parent="1">
          <mxGeometry x="355" y="40" width="100" height="60" as="geometry" />
        </mxCell>
        <mxCell id="XUk-OyAQpMaFKwRmPCpT-58" style="edgeStyle=orthogonalEdgeStyle;rounded=0;orthogonalLoop=1;jettySize=auto;html=1;exitX=0.5;exitY=1;exitDx=0;exitDy=0;fontSize=17;" edge="1" parent="1" target="XUk-OyAQpMaFKwRmPCpT-59">
          <mxGeometry relative="1" as="geometry">
            <mxPoint x="605" y="1020" as="targetPoint" />
            <mxPoint x="605" y="960" as="sourcePoint" />
            <Array as="points">
              <mxPoint x="605" y="980" />
              <mxPoint x="408" y="980" />
            </Array>
          </mxGeometry>
        </mxCell>
        <mxCell id="XUk-OyAQpMaFKwRmPCpT-59" value="END" style="strokeWidth=2;html=1;shape=mxgraph.flowchart.terminator;whiteSpace=wrap;fontSize=17;" vertex="1" parent="1">
          <mxGeometry x="357.5" y="1000" width="100" height="40" as="geometry" />
        </mxCell>
        <mxCell id="XUk-OyAQpMaFKwRmPCpT-63" value="price" style="strokeWidth=2;html=1;shape=mxgraph.flowchart.display;whiteSpace=wrap;fontSize=16;" vertex="1" parent="1">
          <mxGeometry x="560" y="900" width="100" height="60" as="geometry" />
        </mxCell>
      </root>
    </mxGraphModel>
  </diagram>
</mxfile>
